<?xml version="1.0" encoding="utf-8"?>
<!-- Generator: Adobe Illustrator 19.0.0, SVG Export Plug-In . SVG Version: 6.00 Build 0)  -->
<svg version="1.1" id="layer" xmlns="http://www.w3.org/2000/svg" xmlns:xlink="http://www.w3.org/1999/xlink" x="0px" y="0px"
	 viewBox="-153 -46 652 652" style="enable-background:new -153 -46 652 652;" xml:space="preserve">
<path id="XMLID_1_" d="M-52.5,234.9c33.1,0,59.9,26.8,59.9,59.9c0,33.1-26.8,59.9-59.9,59.9c-33.1,0-59.9-26.8-59.9-59.9
	C-112.3,261.7-85.5,234.9-52.5,234.9 M107.8,390.5h73.4L38.8,30.4h-73.4L107.8,390.5z M383.8,30.4L274,308.2L164.2,30.4H90.8
	l142.4,360.1h81.6L457.2,30.4H383.8z M383.8,30.4L274,308.2L164.2,30.4H90.8l142.4,360.1h81.6L457.2,30.4H383.8z M-40.5,529
	L-73,445.2l-32.4,83.8h4.6l9.4-24.3h37l9.3,24.3H-40.5z M-56.4,500h-33.2l16.6-43L-56.4,500z M31.2,452.5v-4.7H-9.4v4.7h18V529h4.7
	v-76.6H31.2z M102.2,529v-4.7H79.3v-76.5h-4.5V529H102.2z M206.7,529l-32.5-83.8L141.8,529h4.6l9.4-24.3h37l9.3,24.3H206.7z
	 M190.8,500h-33.2l16.6-43L190.8,500z M282.4,528.3c8.7-3.3,13.1-10,13.1-20.4c0-6.4-2.2-11.8-6.6-16.2c-1.6-1.6-3.7-3.2-6.3-4.7
	c-2.6-1.5-5.7-3.1-9.2-4.7c-5.7-2.6-9.5-4.6-11.4-6.1c-3.3-2.9-5-6.3-5-10.1c0-4.3,1.6-7.8,4.8-10.5c2.9-2.5,6.7-3.7,11.1-3.7
	c4.2,0,7.7,0.8,10.3,2.5c2.1,1.2,3.9,3.1,5.5,5.6l4.4-1.9c-3.9-7.1-10.7-10.7-20.2-10.7c-5.8,0-10.6,1.7-14.5,5.2
	c-4,3.4-6,7.9-6,13.5c0,5.6,2,10.1,5.9,13.5c2.4,2.1,6.8,4.6,13.2,7.5c3.4,1.5,6.2,2.9,8.4,4.1c2.2,1.2,3.8,2.3,4.9,3.3
	c4,3.6,6,8,6,13.4c0,5.7-1.7,10-5.1,13c-3.3,2.9-7.9,4.3-13.8,4.3c-10.2,0-16.7-4.8-19.3-14.6l-4.7,1.6c3.6,11.8,11.6,17.6,24,17.6
	C275.9,529.9,279.4,529.4,282.4,528.3 M459.2,447.8h-4.9L433,514.9l-21.3-67.1h-4.8l26,82.6L459.2,447.8z M352.3,479.3
	c-3.5,0-6.4,2.9-6.4,6.4c0,3.5,2.9,6.4,6.4,6.4c3.5,0,6.4-2.9,6.4-6.4C358.7,482.2,355.9,479.3,352.3,479.3"/>
</svg>
